<svg id="visual" viewBox="0 0 900 150" width="900" height="150" xmlns="http://www.w3.org/2000/svg" xmlns:xlink="http://www.w3.org/1999/xlink" version="1.1"><rect x="0" y="0" width="900" height="150" fill="#000000"></rect><path d="M0 102L13.7 102.2C27.3 102.3 54.7 102.7 82 101.5C109.3 100.3 136.7 97.7 163.8 94.8C191 92 218 89 245.2 88.2C272.3 87.3 299.7 88.7 327 91.3C354.3 94 381.7 98 409 100C436.3 102 463.7 102 491 100.3C518.3 98.7 545.7 95.3 573 94.5C600.3 93.7 627.7 95.3 654.8 96.7C682 98 709 99 736.2 99.2C763.3 99.3 790.7 98.7 818 96.5C845.3 94.3 872.7 90.7 886.3 88.8L900 87L900 151L886.3 151C872.7 151 845.3 151 818 151C790.7 151 763.3 151 736.2 151C709 151 682 151 654.8 151C627.7 151 600.3 151 573 151C545.7 151 518.3 151 491 151C463.7 151 436.3 151 409 151C381.7 151 354.3 151 327 151C299.7 151 272.3 151 245.2 151C218 151 191 151 163.8 151C136.7 151 109.3 151 82 151C54.7 151 27.3 151 13.7 151L0 151Z" fill="#3b3b3b"></path><path d="M0 109L13.7 109.7C27.3 110.3 54.7 111.7 82 111.7C109.3 111.7 136.7 110.3 163.8 110.7C191 111 218 113 245.2 111.2C272.3 109.3 299.7 103.7 327 102.8C354.3 102 381.7 106 409 105.7C436.3 105.3 463.7 100.7 491 100.7C518.3 100.7 545.7 105.3 573 107C600.3 108.7 627.7 107.3 654.8 107C682 106.7 709 107.3 736.2 106.3C763.3 105.3 790.7 102.7 818 101.5C845.3 100.3 872.7 100.7 886.3 100.8L900 101L900 151L886.3 151C872.7 151 845.3 151 818 151C790.7 151 763.3 151 736.2 151C709 151 682 151 654.8 151C627.7 151 600.3 151 573 151C545.7 151 518.3 151 491 151C463.7 151 436.3 151 409 151C381.7 151 354.3 151 327 151C299.7 151 272.3 151 245.2 151C218 151 191 151 163.8 151C136.7 151 109.3 151 82 151C54.7 151 27.3 151 13.7 151L0 151Z" fill="#684441"></path><path d="M0 117L13.7 116.8C27.3 116.7 54.7 116.3 82 116.7C109.3 117 136.7 118 163.8 116.5C191 115 218 111 245.2 109.3C272.3 107.7 299.7 108.3 327 109.2C354.3 110 381.7 111 409 112.8C436.3 114.7 463.7 117.3 491 116.3C518.3 115.3 545.7 110.7 573 110.3C600.3 110 627.7 114 654.8 114.7C682 115.3 709 112.7 736.2 113C763.3 113.3 790.7 116.7 818 118.7C845.3 120.7 872.7 121.3 886.3 121.7L900 122L900 151L886.3 151C872.7 151 845.3 151 818 151C790.7 151 763.3 151 736.2 151C709 151 682 151 654.8 151C627.7 151 600.3 151 573 151C545.7 151 518.3 151 491 151C463.7 151 436.3 151 409 151C381.7 151 354.3 151 327 151C299.7 151 272.3 151 245.2 151C218 151 191 151 163.8 151C136.7 151 109.3 151 82 151C54.7 151 27.3 151 13.7 151L0 151Z" fill="#934b47"></path><path d="M0 121L13.7 122.5C27.3 124 54.7 127 82 127.5C109.3 128 136.7 126 163.8 125.5C191 125 218 126 245.2 127.3C272.3 128.7 299.7 130.3 327 131.2C354.3 132 381.7 132 409 130.5C436.3 129 463.7 126 491 125.8C518.3 125.7 545.7 128.3 573 129.2C600.3 130 627.7 129 654.8 127C682 125 709 122 736.2 122C763.3 122 790.7 125 818 125.2C845.3 125.3 872.7 122.7 886.3 121.3L900 120L900 151L886.3 151C872.7 151 845.3 151 818 151C790.7 151 763.3 151 736.2 151C709 151 682 151 654.8 151C627.7 151 600.3 151 573 151C545.7 151 518.3 151 491 151C463.7 151 436.3 151 409 151C381.7 151 354.3 151 327 151C299.7 151 272.3 151 245.2 151C218 151 191 151 163.8 151C136.7 151 109.3 151 82 151C54.7 151 27.3 151 13.7 151L0 151Z" fill="#bf504d"></path><path d="M0 138L13.7 136.8C27.3 135.7 54.7 133.3 82 132.3C109.3 131.3 136.7 131.7 163.8 133C191 134.3 218 136.7 245.2 136.8C272.3 137 299.7 135 327 135.2C354.3 135.3 381.7 137.7 409 139.2C436.3 140.7 463.7 141.3 491 140.2C518.3 139 545.7 136 573 134.7C600.3 133.3 627.7 133.7 654.8 135.3C682 137 709 140 736.2 140.7C763.3 141.3 790.7 139.7 818 138.2C845.3 136.7 872.7 135.3 886.3 134.7L900 134L900 151L886.3 151C872.7 151 845.3 151 818 151C790.7 151 763.3 151 736.2 151C709 151 682 151 654.8 151C627.7 151 600.3 151 573 151C545.7 151 518.3 151 491 151C463.7 151 436.3 151 409 151C381.7 151 354.3 151 327 151C299.7 151 272.3 151 245.2 151C218 151 191 151 163.8 151C136.7 151 109.3 151 82 151C54.7 151 27.3 151 13.7 151L0 151Z" fill="#ec5252"></path></svg>