<svg id="visual" viewBox="0 0 900 150" width="900" height="150" xmlns="http://www.w3.org/2000/svg" xmlns:xlink="http://www.w3.org/1999/xlink" version="1.1"><rect x="0" y="0" width="900" height="150" fill="#dadada"></rect><path d="M0 86L8.3 88.5C16.7 91 33.3 96 50 98.7C66.7 101.3 83.3 101.7 100 99.5C116.7 97.3 133.3 92.7 150 89.5C166.7 86.3 183.3 84.7 200 85.3C216.7 86 233.3 89 250 89.2C266.7 89.3 283.3 86.7 300 87.8C316.7 89 333.3 94 350 96C366.7 98 383.3 97 400 98C416.7 99 433.3 102 450 101.3C466.7 100.7 483.3 96.3 500 91.7C516.7 87 533.3 82 550 81.2C566.7 80.3 583.3 83.7 600 86.8C616.7 90 633.3 93 650 94.8C666.7 96.7 683.3 97.3 700 97.2C716.7 97 733.3 96 750 95.3C766.7 94.7 783.3 94.3 800 91.8C816.7 89.3 833.3 84.7 850 84.7C866.7 84.7 883.3 89.3 891.7 91.7L900 94L900 151L891.7 151C883.3 151 866.7 151 850 151C833.3 151 816.7 151 800 151C783.3 151 766.7 151 750 151C733.3 151 716.7 151 700 151C683.3 151 666.7 151 650 151C633.3 151 616.7 151 600 151C583.3 151 566.7 151 550 151C533.3 151 516.7 151 500 151C483.3 151 466.7 151 450 151C433.3 151 416.7 151 400 151C383.3 151 366.7 151 350 151C333.3 151 316.7 151 300 151C283.3 151 266.7 151 250 151C233.3 151 216.7 151 200 151C183.3 151 166.7 151 150 151C133.3 151 116.7 151 100 151C83.3 151 66.7 151 50 151C33.3 151 16.7 151 8.3 151L0 151Z" fill="#565656"></path><path d="M0 97L8.3 98.5C16.7 100 33.3 103 50 100.8C66.7 98.7 83.3 91.3 100 89.3C116.7 87.3 133.3 90.7 150 94.5C166.7 98.3 183.3 102.7 200 101.5C216.7 100.3 233.3 93.7 250 94C266.7 94.3 283.3 101.7 300 102C316.7 102.3 333.3 95.7 350 91.8C366.7 88 383.3 87 400 86.8C416.7 86.7 433.3 87.3 450 89.5C466.7 91.7 483.3 95.3 500 94.2C516.7 93 533.3 87 550 88C566.7 89 583.3 97 600 98C616.7 99 633.3 93 650 93.7C666.7 94.3 683.3 101.7 700 105.3C716.7 109 733.3 109 750 107.7C766.7 106.3 783.3 103.7 800 101.3C816.7 99 833.3 97 850 94.3C866.7 91.7 883.3 88.3 891.7 86.7L900 85L900 151L891.7 151C883.3 151 866.7 151 850 151C833.3 151 816.7 151 800 151C783.3 151 766.7 151 750 151C733.3 151 716.7 151 700 151C683.3 151 666.7 151 650 151C633.3 151 616.7 151 600 151C583.3 151 566.7 151 550 151C533.3 151 516.7 151 500 151C483.3 151 466.7 151 450 151C433.3 151 416.7 151 400 151C383.3 151 366.7 151 350 151C333.3 151 316.7 151 300 151C283.3 151 266.7 151 250 151C233.3 151 216.7 151 200 151C183.3 151 166.7 151 150 151C133.3 151 116.7 151 100 151C83.3 151 66.7 151 50 151C33.3 151 16.7 151 8.3 151L0 151Z" fill="#4d4d4d"></path><path d="M0 89L8.3 91.8C16.7 94.7 33.3 100.3 50 101.8C66.7 103.3 83.3 100.7 100 99.8C116.7 99 133.3 100 150 101.7C166.7 103.3 183.3 105.7 200 103.5C216.7 101.3 233.3 94.7 250 91.7C266.7 88.7 283.3 89.3 300 91.7C316.7 94 333.3 98 350 98.3C366.7 98.7 383.3 95.3 400 93.7C416.7 92 433.3 92 450 93.8C466.7 95.7 483.3 99.3 500 98.7C516.7 98 533.3 93 550 91.8C566.7 90.7 583.3 93.3 600 93.7C616.7 94 633.3 92 650 92.3C666.7 92.7 683.3 95.3 700 96.5C716.7 97.7 733.3 97.3 750 95.7C766.7 94 783.3 91 800 92.2C816.7 93.3 833.3 98.7 850 98.5C866.7 98.3 883.3 92.7 891.7 89.8L900 87L900 151L891.7 151C883.3 151 866.7 151 850 151C833.3 151 816.7 151 800 151C783.3 151 766.7 151 750 151C733.3 151 716.7 151 700 151C683.3 151 666.7 151 650 151C633.3 151 616.7 151 600 151C583.3 151 566.7 151 550 151C533.3 151 516.7 151 500 151C483.3 151 466.7 151 450 151C433.3 151 416.7 151 400 151C383.3 151 366.7 151 350 151C333.3 151 316.7 151 300 151C283.3 151 266.7 151 250 151C233.3 151 216.7 151 200 151C183.3 151 166.7 151 150 151C133.3 151 116.7 151 100 151C83.3 151 66.7 151 50 151C33.3 151 16.7 151 8.3 151L0 151Z" fill="#454545"></path><path d="M0 113L8.3 109.7C16.7 106.3 33.3 99.7 50 100.3C66.7 101 83.3 109 100 109.5C116.7 110 133.3 103 150 100.5C166.7 98 183.3 100 200 101.5C216.7 103 233.3 104 250 105C266.7 106 283.3 107 300 108.7C316.7 110.3 333.3 112.7 350 113.5C366.7 114.3 383.3 113.7 400 110.2C416.7 106.7 433.3 100.3 450 100.2C466.7 100 483.3 106 500 109.5C516.7 113 533.3 114 550 111.2C566.7 108.3 583.3 101.7 600 101.2C616.7 100.7 633.3 106.3 650 110C666.7 113.7 683.3 115.3 700 112.5C716.7 109.7 733.3 102.3 750 102.2C766.7 102 783.3 109 800 111.8C816.7 114.7 833.3 113.3 850 112.8C866.7 112.3 883.3 112.7 891.7 112.8L900 113L900 151L891.7 151C883.3 151 866.7 151 850 151C833.3 151 816.7 151 800 151C783.3 151 766.7 151 750 151C733.3 151 716.7 151 700 151C683.3 151 666.7 151 650 151C633.3 151 616.7 151 600 151C583.3 151 566.7 151 550 151C533.3 151 516.7 151 500 151C483.3 151 466.7 151 450 151C433.3 151 416.7 151 400 151C383.3 151 366.7 151 350 151C333.3 151 316.7 151 300 151C283.3 151 266.7 151 250 151C233.3 151 216.7 151 200 151C183.3 151 166.7 151 150 151C133.3 151 116.7 151 100 151C83.3 151 66.7 151 50 151C33.3 151 16.7 151 8.3 151L0 151Z" fill="#3d3d3d"></path><path d="M0 110L8.3 109.2C16.7 108.3 33.3 106.7 50 107.2C66.7 107.7 83.3 110.3 100 109.5C116.7 108.7 133.3 104.3 150 102C166.7 99.7 183.3 99.3 200 100.2C216.7 101 233.3 103 250 103.2C266.7 103.3 283.3 101.7 300 103.8C316.7 106 333.3 112 350 112.5C366.7 113 383.3 108 400 106.3C416.7 104.7 433.3 106.3 450 107.7C466.7 109 483.3 110 500 111.7C516.7 113.3 533.3 115.7 550 115C566.7 114.3 583.3 110.7 600 110.7C616.7 110.7 633.3 114.3 650 113.8C666.7 113.3 683.3 108.7 700 106.5C716.7 104.3 733.3 104.7 750 107.5C766.7 110.3 783.3 115.7 800 116C816.7 116.3 833.3 111.7 850 111.3C866.7 111 883.3 115 891.7 117L900 119L900 151L891.7 151C883.3 151 866.7 151 850 151C833.3 151 816.7 151 800 151C783.3 151 766.7 151 750 151C733.3 151 716.7 151 700 151C683.3 151 666.7 151 650 151C633.3 151 616.7 151 600 151C583.3 151 566.7 151 550 151C533.3 151 516.7 151 500 151C483.3 151 466.7 151 450 151C433.3 151 416.7 151 400 151C383.3 151 366.7 151 350 151C333.3 151 316.7 151 300 151C283.3 151 266.7 151 250 151C233.3 151 216.7 151 200 151C183.3 151 166.7 151 150 151C133.3 151 116.7 151 100 151C83.3 151 66.7 151 50 151C33.3 151 16.7 151 8.3 151L0 151Z" fill="#353535"></path><path d="M0 106L8.3 107.3C16.7 108.7 33.3 111.3 50 114.8C66.7 118.3 83.3 122.7 100 121.7C116.7 120.7 133.3 114.3 150 112.3C166.7 110.3 183.3 112.7 200 114.3C216.7 116 233.3 117 250 117C266.7 117 283.3 116 300 115.2C316.7 114.3 333.3 113.7 350 114.3C366.7 115 383.3 117 400 117.7C416.7 118.3 433.3 117.7 450 117.2C466.7 116.7 483.3 116.3 500 116.5C516.7 116.7 533.3 117.3 550 118.8C566.7 120.3 583.3 122.7 600 121C616.7 119.3 633.3 113.7 650 110.5C666.7 107.3 683.3 106.7 700 107.2C716.7 107.7 733.3 109.3 750 109.7C766.7 110 783.3 109 800 111C816.7 113 833.3 118 850 120C866.7 122 883.3 121 891.7 120.5L900 120L900 151L891.7 151C883.3 151 866.7 151 850 151C833.3 151 816.7 151 800 151C783.3 151 766.7 151 750 151C733.3 151 716.7 151 700 151C683.3 151 666.7 151 650 151C633.3 151 616.7 151 600 151C583.3 151 566.7 151 550 151C533.3 151 516.7 151 500 151C483.3 151 466.7 151 450 151C433.3 151 416.7 151 400 151C383.3 151 366.7 151 350 151C333.3 151 316.7 151 300 151C283.3 151 266.7 151 250 151C233.3 151 216.7 151 200 151C183.3 151 166.7 151 150 151C133.3 151 116.7 151 100 151C83.3 151 66.7 151 50 151C33.3 151 16.7 151 8.3 151L0 151Z" fill="#2d2d2d"></path><path d="M0 131L8.3 128.2C16.7 125.3 33.3 119.7 50 117C66.7 114.3 83.3 114.7 100 116C116.7 117.3 133.3 119.7 150 122C166.7 124.3 183.3 126.7 200 127.5C216.7 128.3 233.3 127.7 250 126.7C266.7 125.7 283.3 124.3 300 124.3C316.7 124.3 333.3 125.7 350 124.7C366.7 123.7 383.3 120.3 400 119.3C416.7 118.3 433.3 119.7 450 118.8C466.7 118 483.3 115 500 115.7C516.7 116.3 533.3 120.7 550 122C566.7 123.3 583.3 121.7 600 121.3C616.7 121 633.3 122 650 123.8C666.7 125.7 683.3 128.3 700 129.2C716.7 130 733.3 129 750 126.5C766.7 124 783.3 120 800 119.7C816.7 119.3 833.3 122.7 850 122.3C866.7 122 883.3 118 891.7 116L900 114L900 151L891.7 151C883.3 151 866.7 151 850 151C833.3 151 816.7 151 800 151C783.3 151 766.7 151 750 151C733.3 151 716.7 151 700 151C683.3 151 666.7 151 650 151C633.3 151 616.7 151 600 151C583.3 151 566.7 151 550 151C533.3 151 516.7 151 500 151C483.3 151 466.7 151 450 151C433.3 151 416.7 151 400 151C383.3 151 366.7 151 350 151C333.3 151 316.7 151 300 151C283.3 151 266.7 151 250 151C233.3 151 216.7 151 200 151C183.3 151 166.7 151 150 151C133.3 151 116.7 151 100 151C83.3 151 66.7 151 50 151C33.3 151 16.7 151 8.3 151L0 151Z" fill="#252525"></path><path d="M0 134L8.3 131.3C16.7 128.7 33.3 123.3 50 122.3C66.7 121.3 83.3 124.7 100 127.7C116.7 130.7 133.3 133.3 150 134.3C166.7 135.3 183.3 134.7 200 131.8C216.7 129 233.3 124 250 122.5C266.7 121 283.3 123 300 125.2C316.7 127.3 333.3 129.7 350 129.3C366.7 129 383.3 126 400 125.8C416.7 125.7 433.3 128.3 450 130.2C466.7 132 483.3 133 500 133.3C516.7 133.7 533.3 133.3 550 132.5C566.7 131.7 583.3 130.3 600 128.2C616.7 126 633.3 123 650 122.3C666.7 121.7 683.3 123.3 700 125.3C716.7 127.3 733.3 129.7 750 128.8C766.7 128 783.3 124 800 124.5C816.7 125 833.3 130 850 130.7C866.7 131.3 883.3 127.7 891.7 125.8L900 124L900 151L891.7 151C883.3 151 866.7 151 850 151C833.3 151 816.7 151 800 151C783.3 151 766.7 151 750 151C733.3 151 716.7 151 700 151C683.3 151 666.7 151 650 151C633.3 151 616.7 151 600 151C583.3 151 566.7 151 550 151C533.3 151 516.7 151 500 151C483.3 151 466.7 151 450 151C433.3 151 416.7 151 400 151C383.3 151 366.7 151 350 151C333.3 151 316.7 151 300 151C283.3 151 266.7 151 250 151C233.3 151 216.7 151 200 151C183.3 151 166.7 151 150 151C133.3 151 116.7 151 100 151C83.3 151 66.7 151 50 151C33.3 151 16.7 151 8.3 151L0 151Z" fill="#1e1e1e"></path><path d="M0 134L8.3 134.7C16.7 135.3 33.3 136.7 50 136C66.7 135.3 83.3 132.7 100 131.7C116.7 130.7 133.3 131.3 150 132.8C166.7 134.3 183.3 136.7 200 135.3C216.7 134 233.3 129 250 127.3C266.7 125.7 283.3 127.3 300 127.3C316.7 127.3 333.3 125.7 350 127C366.7 128.3 383.3 132.7 400 133.3C416.7 134 433.3 131 450 131.3C466.7 131.7 483.3 135.3 500 135.3C516.7 135.3 533.3 131.7 550 131.3C566.7 131 583.3 134 600 135.5C616.7 137 633.3 137 650 137.3C666.7 137.7 683.3 138.3 700 136.5C716.7 134.7 733.3 130.3 750 129C766.7 127.7 783.3 129.3 800 129.3C816.7 129.3 833.3 127.7 850 129C866.7 130.3 883.3 134.7 891.7 136.8L900 139L900 151L891.7 151C883.3 151 866.7 151 850 151C833.3 151 816.7 151 800 151C783.3 151 766.7 151 750 151C733.3 151 716.7 151 700 151C683.3 151 666.7 151 650 151C633.3 151 616.7 151 600 151C583.3 151 566.7 151 550 151C533.3 151 516.7 151 500 151C483.3 151 466.7 151 450 151C433.3 151 416.7 151 400 151C383.3 151 366.7 151 350 151C333.3 151 316.7 151 300 151C283.3 151 266.7 151 250 151C233.3 151 216.7 151 200 151C183.3 151 166.7 151 150 151C133.3 151 116.7 151 100 151C83.3 151 66.7 151 50 151C33.3 151 16.7 151 8.3 151L0 151Z" fill="#161616"></path><path d="M0 141L8.3 140.8C16.7 140.7 33.3 140.3 50 138.7C66.7 137 83.3 134 100 133.2C116.7 132.3 133.3 133.7 150 134.8C166.7 136 183.3 137 200 138.5C216.7 140 233.3 142 250 141.2C266.7 140.3 283.3 136.7 300 135.7C316.7 134.7 333.3 136.3 350 137C366.7 137.7 383.3 137.3 400 137C416.7 136.7 433.3 136.3 450 135.8C466.7 135.3 483.3 134.7 500 135.8C516.7 137 533.3 140 550 139.7C566.7 139.3 583.3 135.7 600 135.8C616.7 136 633.3 140 650 140.3C666.7 140.7 683.3 137.3 700 135.5C716.7 133.7 733.3 133.3 750 135C766.7 136.7 783.3 140.3 800 140.7C816.7 141 833.3 138 850 137.7C866.7 137.3 883.3 139.7 891.7 140.8L900 142L900 151L891.7 151C883.3 151 866.7 151 850 151C833.3 151 816.7 151 800 151C783.3 151 766.7 151 750 151C733.3 151 716.7 151 700 151C683.3 151 666.7 151 650 151C633.3 151 616.7 151 600 151C583.3 151 566.7 151 550 151C533.3 151 516.7 151 500 151C483.3 151 466.7 151 450 151C433.3 151 416.7 151 400 151C383.3 151 366.7 151 350 151C333.3 151 316.7 151 300 151C283.3 151 266.7 151 250 151C233.3 151 216.7 151 200 151C183.3 151 166.7 151 150 151C133.3 151 116.7 151 100 151C83.3 151 66.7 151 50 151C33.3 151 16.7 151 8.3 151L0 151Z" fill="#0d0d0d"></path><path d="M0 148L8.3 146.2C16.7 144.3 33.3 140.7 50 139.2C66.7 137.7 83.3 138.3 100 139.3C116.7 140.3 133.3 141.7 150 141.7C166.7 141.7 183.3 140.3 200 141C216.7 141.7 233.3 144.3 250 144C266.7 143.7 283.3 140.3 300 139C316.7 137.7 333.3 138.3 350 139.2C366.7 140 383.3 141 400 141.8C416.7 142.7 433.3 143.3 450 143.8C466.7 144.3 483.3 144.7 500 143.7C516.7 142.7 533.3 140.3 550 139.8C566.7 139.3 583.3 140.7 600 140.7C616.7 140.7 633.3 139.3 650 139.7C666.7 140 683.3 142 700 142.3C716.7 142.7 733.3 141.3 750 140.7C766.7 140 783.3 140 800 140.8C816.7 141.7 833.3 143.3 850 144.3C866.7 145.3 883.3 145.7 891.7 145.8L900 146L900 151L891.7 151C883.3 151 866.7 151 850 151C833.3 151 816.7 151 800 151C783.3 151 766.7 151 750 151C733.3 151 716.7 151 700 151C683.3 151 666.7 151 650 151C633.3 151 616.7 151 600 151C583.3 151 566.7 151 550 151C533.3 151 516.7 151 500 151C483.3 151 466.7 151 450 151C433.3 151 416.7 151 400 151C383.3 151 366.7 151 350 151C333.3 151 316.7 151 300 151C283.3 151 266.7 151 250 151C233.3 151 216.7 151 200 151C183.3 151 166.7 151 150 151C133.3 151 116.7 151 100 151C83.3 151 66.7 151 50 151C33.3 151 16.7 151 8.3 151L0 151Z" fill="#000000"></path></svg>