<svg id="visual" viewBox="0 0 900 150" width="900" height="150" xmlns="http://www.w3.org/2000/svg" xmlns:xlink="http://www.w3.org/1999/xlink" version="1.1"><rect x="0" y="0" width="900" height="150" fill="#dadada"></rect><path d="M0 62L8.3 59.5C16.7 57 33.3 52 50 49.3C66.7 46.7 83.3 46.3 100 48.5C116.7 50.7 133.3 55.3 150 58.5C166.7 61.7 183.3 63.3 200 62.7C216.7 62 233.3 59 250 58.8C266.7 58.7 283.3 61.3 300 60.2C316.7 59 333.3 54 350 52C366.7 50 383.3 51 400 50C416.7 49 433.3 46 450 46.7C466.7 47.3 483.3 51.7 500 56.3C516.7 61 533.3 66 550 66.8C566.7 67.7 583.3 64.3 600 61.2C616.7 58 633.3 55 650 53.2C666.7 51.3 683.3 50.7 700 50.8C716.7 51 733.3 52 750 52.7C766.7 53.3 783.3 53.7 800 56.2C816.7 58.7 833.3 63.3 850 63.3C866.7 63.3 883.3 58.7 891.7 56.3L900 54L900 0L891.7 0C883.3 0 866.7 0 850 0C833.3 0 816.7 0 800 0C783.3 0 766.7 0 750 0C733.3 0 716.7 0 700 0C683.3 0 666.7 0 650 0C633.3 0 616.7 0 600 0C583.3 0 566.7 0 550 0C533.3 0 516.7 0 500 0C483.3 0 466.7 0 450 0C433.3 0 416.7 0 400 0C383.3 0 366.7 0 350 0C333.3 0 316.7 0 300 0C283.3 0 266.7 0 250 0C233.3 0 216.7 0 200 0C183.3 0 166.7 0 150 0C133.3 0 116.7 0 100 0C83.3 0 66.7 0 50 0C33.3 0 16.7 0 8.3 0L0 0Z" fill="#565656"></path><path d="M0 51L8.3 49.5C16.7 48 33.3 45 50 47.2C66.7 49.3 83.3 56.7 100 58.7C116.7 60.7 133.3 57.3 150 53.5C166.7 49.7 183.3 45.3 200 46.5C216.7 47.7 233.3 54.3 250 54C266.7 53.7 283.3 46.3 300 46C316.7 45.7 333.3 52.3 350 56.2C366.7 60 383.3 61 400 61.2C416.7 61.3 433.3 60.7 450 58.5C466.7 56.3 483.3 52.7 500 53.8C516.7 55 533.3 61 550 60C566.7 59 583.3 51 600 50C616.7 49 633.3 55 650 54.3C666.7 53.7 683.3 46.3 700 42.7C716.7 39 733.3 39 750 40.3C766.7 41.7 783.3 44.3 800 46.7C816.7 49 833.3 51 850 53.7C866.7 56.3 883.3 59.7 891.7 61.3L900 63L900 0L891.7 0C883.3 0 866.7 0 850 0C833.3 0 816.7 0 800 0C783.3 0 766.7 0 750 0C733.3 0 716.7 0 700 0C683.3 0 666.7 0 650 0C633.3 0 616.7 0 600 0C583.3 0 566.7 0 550 0C533.3 0 516.7 0 500 0C483.3 0 466.7 0 450 0C433.3 0 416.7 0 400 0C383.3 0 366.7 0 350 0C333.3 0 316.7 0 300 0C283.3 0 266.7 0 250 0C233.3 0 216.7 0 200 0C183.3 0 166.7 0 150 0C133.3 0 116.7 0 100 0C83.3 0 66.7 0 50 0C33.3 0 16.7 0 8.3 0L0 0Z" fill="#4d4d4d"></path><path d="M0 59L8.3 56.2C16.7 53.3 33.3 47.7 50 46.2C66.7 44.7 83.3 47.3 100 48.2C116.7 49 133.3 48 150 46.3C166.7 44.7 183.3 42.3 200 44.5C216.7 46.7 233.3 53.3 250 56.3C266.7 59.3 283.3 58.7 300 56.3C316.7 54 333.3 50 350 49.7C366.7 49.3 383.3 52.7 400 54.3C416.7 56 433.3 56 450 54.2C466.7 52.3 483.3 48.7 500 49.3C516.7 50 533.3 55 550 56.2C566.7 57.3 583.3 54.7 600 54.3C616.7 54 633.3 56 650 55.7C666.7 55.3 683.3 52.7 700 51.5C716.7 50.3 733.3 50.7 750 52.3C766.7 54 783.3 57 800 55.8C816.7 54.7 833.3 49.3 850 49.5C866.7 49.7 883.3 55.3 891.7 58.2L900 61L900 0L891.7 0C883.3 0 866.7 0 850 0C833.3 0 816.7 0 800 0C783.3 0 766.7 0 750 0C733.3 0 716.7 0 700 0C683.3 0 666.7 0 650 0C633.3 0 616.7 0 600 0C583.3 0 566.7 0 550 0C533.3 0 516.7 0 500 0C483.3 0 466.7 0 450 0C433.3 0 416.7 0 400 0C383.3 0 366.7 0 350 0C333.3 0 316.7 0 300 0C283.3 0 266.7 0 250 0C233.3 0 216.7 0 200 0C183.3 0 166.7 0 150 0C133.3 0 116.7 0 100 0C83.3 0 66.7 0 50 0C33.3 0 16.7 0 8.3 0L0 0Z" fill="#454545"></path><path d="M0 35L8.3 38.3C16.7 41.7 33.3 48.3 50 47.7C66.7 47 83.3 39 100 38.5C116.7 38 133.3 45 150 47.5C166.7 50 183.3 48 200 46.5C216.7 45 233.3 44 250 43C266.7 42 283.3 41 300 39.3C316.7 37.7 333.3 35.3 350 34.5C366.7 33.7 383.3 34.3 400 37.8C416.7 41.3 433.3 47.7 450 47.8C466.7 48 483.3 42 500 38.5C516.7 35 533.3 34 550 36.8C566.7 39.7 583.3 46.3 600 46.8C616.7 47.3 633.3 41.7 650 38C666.7 34.3 683.3 32.7 700 35.5C716.7 38.3 733.3 45.7 750 45.8C766.7 46 783.3 39 800 36.2C816.7 33.3 833.3 34.7 850 35.2C866.7 35.7 883.3 35.3 891.7 35.2L900 35L900 0L891.7 0C883.3 0 866.7 0 850 0C833.3 0 816.7 0 800 0C783.3 0 766.7 0 750 0C733.3 0 716.7 0 700 0C683.3 0 666.7 0 650 0C633.3 0 616.7 0 600 0C583.3 0 566.7 0 550 0C533.3 0 516.7 0 500 0C483.3 0 466.7 0 450 0C433.3 0 416.7 0 400 0C383.3 0 366.7 0 350 0C333.3 0 316.7 0 300 0C283.3 0 266.7 0 250 0C233.3 0 216.7 0 200 0C183.3 0 166.7 0 150 0C133.3 0 116.7 0 100 0C83.3 0 66.7 0 50 0C33.3 0 16.7 0 8.3 0L0 0Z" fill="#3d3d3d"></path><path d="M0 38L8.3 38.8C16.7 39.7 33.3 41.3 50 40.8C66.7 40.3 83.3 37.7 100 38.5C116.7 39.3 133.3 43.7 150 46C166.7 48.3 183.3 48.7 200 47.8C216.7 47 233.3 45 250 44.8C266.7 44.7 283.3 46.3 300 44.2C316.7 42 333.3 36 350 35.5C366.7 35 383.3 40 400 41.7C416.7 43.3 433.3 41.7 450 40.3C466.7 39 483.3 38 500 36.3C516.7 34.7 533.3 32.3 550 33C566.7 33.7 583.3 37.3 600 37.3C616.7 37.3 633.3 33.7 650 34.2C666.7 34.7 683.3 39.3 700 41.5C716.7 43.7 733.3 43.3 750 40.5C766.7 37.7 783.3 32.3 800 32C816.7 31.7 833.3 36.3 850 36.7C866.7 37 883.3 33 891.7 31L900 29L900 0L891.7 0C883.3 0 866.7 0 850 0C833.3 0 816.7 0 800 0C783.3 0 766.7 0 750 0C733.3 0 716.7 0 700 0C683.3 0 666.7 0 650 0C633.3 0 616.7 0 600 0C583.3 0 566.7 0 550 0C533.3 0 516.7 0 500 0C483.3 0 466.7 0 450 0C433.3 0 416.7 0 400 0C383.3 0 366.7 0 350 0C333.3 0 316.7 0 300 0C283.3 0 266.7 0 250 0C233.3 0 216.7 0 200 0C183.3 0 166.7 0 150 0C133.3 0 116.7 0 100 0C83.3 0 66.7 0 50 0C33.3 0 16.7 0 8.3 0L0 0Z" fill="#353535"></path><path d="M0 42L8.3 40.7C16.7 39.3 33.3 36.7 50 33.2C66.7 29.7 83.3 25.3 100 26.3C116.7 27.3 133.3 33.7 150 35.7C166.7 37.7 183.3 35.3 200 33.7C216.7 32 233.3 31 250 31C266.7 31 283.3 32 300 32.8C316.7 33.7 333.3 34.3 350 33.7C366.7 33 383.3 31 400 30.3C416.7 29.7 433.3 30.3 450 30.8C466.7 31.3 483.3 31.7 500 31.5C516.7 31.3 533.3 30.7 550 29.2C566.7 27.7 583.3 25.3 600 27C616.7 28.7 633.3 34.3 650 37.5C666.7 40.7 683.3 41.3 700 40.8C716.7 40.3 733.3 38.7 750 38.3C766.7 38 783.3 39 800 37C816.7 35 833.3 30 850 28C866.7 26 883.3 27 891.7 27.5L900 28L900 0L891.7 0C883.3 0 866.7 0 850 0C833.3 0 816.7 0 800 0C783.3 0 766.7 0 750 0C733.3 0 716.7 0 700 0C683.3 0 666.7 0 650 0C633.3 0 616.7 0 600 0C583.3 0 566.7 0 550 0C533.3 0 516.7 0 500 0C483.3 0 466.7 0 450 0C433.3 0 416.7 0 400 0C383.3 0 366.7 0 350 0C333.3 0 316.7 0 300 0C283.3 0 266.7 0 250 0C233.3 0 216.7 0 200 0C183.3 0 166.7 0 150 0C133.3 0 116.7 0 100 0C83.3 0 66.7 0 50 0C33.3 0 16.7 0 8.3 0L0 0Z" fill="#2d2d2d"></path><path d="M0 17L8.3 19.8C16.7 22.7 33.3 28.3 50 31C66.7 33.7 83.3 33.3 100 32C116.7 30.7 133.3 28.3 150 26C166.7 23.7 183.3 21.3 200 20.5C216.7 19.7 233.3 20.3 250 21.3C266.7 22.3 283.3 23.7 300 23.7C316.7 23.7 333.3 22.3 350 23.3C366.7 24.3 383.3 27.7 400 28.7C416.7 29.7 433.3 28.3 450 29.2C466.7 30 483.3 33 500 32.3C516.7 31.7 533.3 27.3 550 26C566.7 24.7 583.3 26.3 600 26.7C616.7 27 633.3 26 650 24.2C666.7 22.3 683.3 19.7 700 18.8C716.7 18 733.3 19 750 21.5C766.7 24 783.3 28 800 28.3C816.7 28.7 833.3 25.3 850 25.7C866.7 26 883.3 30 891.7 32L900 34L900 0L891.7 0C883.3 0 866.7 0 850 0C833.3 0 816.7 0 800 0C783.3 0 766.7 0 750 0C733.3 0 716.7 0 700 0C683.3 0 666.7 0 650 0C633.3 0 616.7 0 600 0C583.3 0 566.7 0 550 0C533.3 0 516.7 0 500 0C483.3 0 466.7 0 450 0C433.3 0 416.7 0 400 0C383.3 0 366.7 0 350 0C333.3 0 316.7 0 300 0C283.3 0 266.7 0 250 0C233.3 0 216.7 0 200 0C183.3 0 166.7 0 150 0C133.3 0 116.7 0 100 0C83.3 0 66.7 0 50 0C33.3 0 16.7 0 8.3 0L0 0Z" fill="#252525"></path><path d="M0 14L8.3 16.7C16.7 19.3 33.3 24.7 50 25.7C66.7 26.7 83.3 23.3 100 20.3C116.7 17.3 133.3 14.7 150 13.7C166.7 12.7 183.3 13.3 200 16.2C216.7 19 233.3 24 250 25.5C266.7 27 283.3 25 300 22.8C316.7 20.7 333.3 18.3 350 18.7C366.7 19 383.3 22 400 22.2C416.7 22.3 433.3 19.7 450 17.8C466.7 16 483.3 15 500 14.7C516.7 14.3 533.3 14.7 550 15.5C566.7 16.3 583.3 17.7 600 19.8C616.7 22 633.3 25 650 25.7C666.7 26.3 683.3 24.7 700 22.7C716.7 20.7 733.3 18.3 750 19.2C766.7 20 783.3 24 800 23.5C816.7 23 833.3 18 850 17.3C866.7 16.7 883.3 20.3 891.7 22.2L900 24L900 0L891.7 0C883.3 0 866.7 0 850 0C833.3 0 816.7 0 800 0C783.3 0 766.7 0 750 0C733.3 0 716.7 0 700 0C683.3 0 666.7 0 650 0C633.3 0 616.7 0 600 0C583.3 0 566.7 0 550 0C533.3 0 516.7 0 500 0C483.3 0 466.7 0 450 0C433.3 0 416.7 0 400 0C383.3 0 366.7 0 350 0C333.3 0 316.7 0 300 0C283.3 0 266.7 0 250 0C233.3 0 216.7 0 200 0C183.3 0 166.7 0 150 0C133.3 0 116.7 0 100 0C83.3 0 66.7 0 50 0C33.3 0 16.7 0 8.3 0L0 0Z" fill="#1e1e1e"></path><path d="M0 14L8.3 13.3C16.7 12.7 33.3 11.3 50 12C66.7 12.7 83.3 15.3 100 16.3C116.7 17.3 133.3 16.7 150 15.2C166.7 13.7 183.3 11.3 200 12.7C216.7 14 233.3 19 250 20.7C266.7 22.3 283.3 20.7 300 20.7C316.7 20.7 333.3 22.3 350 21C366.7 19.7 383.3 15.3 400 14.7C416.7 14 433.3 17 450 16.7C466.7 16.3 483.3 12.7 500 12.7C516.7 12.7 533.3 16.3 550 16.7C566.7 17 583.3 14 600 12.5C616.7 11 633.3 11 650 10.7C666.7 10.3 683.3 9.7 700 11.5C716.7 13.3 733.3 17.7 750 19C766.7 20.3 783.3 18.7 800 18.7C816.7 18.7 833.3 20.3 850 19C866.7 17.7 883.3 13.3 891.7 11.2L900 9L900 0L891.7 0C883.3 0 866.7 0 850 0C833.3 0 816.7 0 800 0C783.3 0 766.7 0 750 0C733.3 0 716.7 0 700 0C683.3 0 666.7 0 650 0C633.3 0 616.7 0 600 0C583.3 0 566.7 0 550 0C533.3 0 516.7 0 500 0C483.3 0 466.7 0 450 0C433.3 0 416.7 0 400 0C383.3 0 366.7 0 350 0C333.3 0 316.7 0 300 0C283.3 0 266.7 0 250 0C233.3 0 216.7 0 200 0C183.3 0 166.7 0 150 0C133.3 0 116.7 0 100 0C83.3 0 66.7 0 50 0C33.3 0 16.7 0 8.3 0L0 0Z" fill="#161616"></path><path d="M0 7L8.3 7.2C16.7 7.3 33.3 7.7 50 9.3C66.7 11 83.3 14 100 14.8C116.7 15.7 133.3 14.3 150 13.2C166.7 12 183.3 11 200 9.5C216.7 8 233.3 6 250 6.8C266.7 7.7 283.3 11.3 300 12.3C316.7 13.3 333.3 11.7 350 11C366.7 10.3 383.3 10.7 400 11C416.7 11.3 433.3 11.7 450 12.2C466.7 12.7 483.3 13.3 500 12.2C516.7 11 533.3 8 550 8.3C566.7 8.7 583.3 12.3 600 12.2C616.7 12 633.3 8 650 7.7C666.7 7.3 683.3 10.7 700 12.5C716.7 14.3 733.3 14.7 750 13C766.7 11.3 783.3 7.7 800 7.3C816.7 7 833.3 10 850 10.3C866.7 10.7 883.3 8.3 891.7 7.2L900 6L900 0L891.7 0C883.3 0 866.7 0 850 0C833.3 0 816.7 0 800 0C783.3 0 766.7 0 750 0C733.3 0 716.7 0 700 0C683.3 0 666.7 0 650 0C633.3 0 616.7 0 600 0C583.3 0 566.7 0 550 0C533.3 0 516.7 0 500 0C483.3 0 466.7 0 450 0C433.3 0 416.7 0 400 0C383.3 0 366.7 0 350 0C333.3 0 316.7 0 300 0C283.3 0 266.7 0 250 0C233.3 0 216.7 0 200 0C183.3 0 166.7 0 150 0C133.3 0 116.7 0 100 0C83.3 0 66.7 0 50 0C33.3 0 16.7 0 8.3 0L0 0Z" fill="#0d0d0d"></path><path d="M0 0L8.3 1.8C16.7 3.7 33.3 7.3 50 8.8C66.7 10.3 83.3 9.7 100 8.7C116.7 7.7 133.3 6.3 150 6.3C166.7 6.3 183.3 7.7 200 7C216.7 6.3 233.3 3.7 250 4C266.7 4.3 283.3 7.7 300 9C316.7 10.3 333.3 9.7 350 8.8C366.7 8 383.3 7 400 6.2C416.7 5.3 433.3 4.7 450 4.2C466.7 3.7 483.3 3.3 500 4.3C516.7 5.3 533.3 7.7 550 8.2C566.7 8.7 583.3 7.3 600 7.3C616.7 7.3 633.3 8.7 650 8.3C666.7 8 683.3 6 700 5.7C716.7 5.3 733.3 6.7 750 7.3C766.7 8 783.3 8 800 7.2C816.7 6.3 833.3 4.7 850 3.7C866.7 2.7 883.3 2.3 891.7 2.2L900 2L900 0L891.7 0C883.3 0 866.7 0 850 0C833.3 0 816.7 0 800 0C783.3 0 766.7 0 750 0C733.3 0 716.7 0 700 0C683.3 0 666.7 0 650 0C633.3 0 616.7 0 600 0C583.3 0 566.7 0 550 0C533.3 0 516.7 0 500 0C483.3 0 466.7 0 450 0C433.3 0 416.7 0 400 0C383.3 0 366.7 0 350 0C333.3 0 316.7 0 300 0C283.3 0 266.7 0 250 0C233.3 0 216.7 0 200 0C183.3 0 166.7 0 150 0C133.3 0 116.7 0 100 0C83.3 0 66.7 0 50 0C33.3 0 16.7 0 8.3 0L0 0Z" fill="#000000"></path></svg>